PathFileType	4	(X/Y/Z)	D:\TRACE\v60_Jaco2_6-2-23\JustBodyDRS_Motion3_6-v60.trc
DataRate	CameraRate	NumFrames	NumMarkers	Units	OrigDataRate	OrigDataStartFrame	OrigNumFrames
100.00	100.00	      41	9	mm	100.00	1751	      7000
Frame#	Time	front left toe			Front right toe			aft left toe			aft right toe			Arm			FL body			FR body			AL Body			AR Body			
		X1	Y1	Z1	X2	Y2	Z2	X3	Y3	Z3	X4	Y4	Z4	X5	Y5	Z5	X6	Y6	Z6	X7	Y7	Z7	X8	Y8	Z8	X9	Y9	Z9	

1751	17.500	-235.74579	14.18993	-269.20209	147.19580	34.21186	-286.35309	-199.01131	34.40972	343.25934	147.09871	16.30801	347.06531	-21.93822	1176.71997	-348.36383	-120.06868	532.03754	-446.67270	38.82368	531.79602	-446.98935	-111.51054	553.08820	497.58029	40.16515	544.53979	497.18341	
1752	17.510	-235.65855	13.70098	-268.93311	146.95363	43.56700	-284.68225	-198.82217	44.07704	344.00653	147.07051	16.23232	346.82187	-22.22104	1176.53687	-347.22699	-120.15437	531.72809	-445.67194	38.47309	532.00928	-446.34576	-112.15982	553.59216	498.26651	39.90084	544.88849	497.96921	
1753	17.520	-235.65520	13.70135	-268.88968	148.65172	55.06747	-284.45703	-200.39293	55.07084	343.29086	147.41446	16.20706	347.20419	-22.98847	1176.41699	-345.89560	-120.89619	531.67255	-445.18698	38.00754	531.89648	-445.37131	-112.34849	553.51764	499.21835	39.27800	544.92450	498.58578	
1754	17.530	-235.71875	13.43698	-268.64828	150.25418	66.24883	-283.79895	-201.57686	65.81057	343.57813	147.53320	16.17297	347.18591	-23.64735	1176.00391	-344.73065	-121.34200	531.36157	-444.27853	37.51001	531.94647	-444.79385	-112.31263	552.69025	499.95728	39.45448	544.53058	499.35513	
1755	17.540	-235.80078	13.35567	-268.66922	150.94966	77.64644	-283.23132	-204.43065	75.98949	344.71201	147.66942	16.13828	347.12048	-24.34641	1176.00549	-343.70804	-122.09388	531.28479	-443.25171	36.79864	531.84003	-443.94910	-112.27939	551.86639	500.94525	41.02589	543.62549	500.07056	
1756	17.550	-235.81895	13.26975	-268.64175	149.96675	88.67259	-282.06339	-206.63353	86.61362	345.86475	147.96526	16.21289	347.34546	-25.46592	1175.94629	-342.44662	-122.64526	531.30927	-442.39786	36.24294	531.81451	-443.00363	-111.97128	551.04431	501.87625	40.78907	542.64685	501.10797	
1757	17.560	-235.84962	13.24757	-268.56409	151.07094	100.03133	-280.00244	-208.37799	96.95422	346.91562	148.00963	16.06826	347.33585	-26.87399	1175.94763	-341.03799	-123.26157	531.19293	-441.40808	35.68419	531.97418	-442.28284	-112.13439	550.26428	502.79327	41.09069	542.28229	502.07291	
1758	17.570	-235.92628	13.29436	-268.67868	149.73421	110.11620	-278.50665	-209.40878	106.78206	348.61728	148.11314	15.83090	347.44830	-27.86114	1175.98462	-339.43515	-123.48299	531.03107	-440.17987	35.14083	531.88354	-441.19254	-111.90782	549.96863	503.82822	41.05519	541.86395	502.99057	
1759	17.580	-235.97099	13.21031	-268.56357	148.89073	119.54683	-276.39798	-210.28377	116.20547	350.45490	148.21719	15.61022	347.47003	-28.86219	1175.93311	-337.94650	-124.36755	531.05621	-439.29269	34.65528	531.90228	-440.32239	-111.23373	549.55646	505.27521	41.42588	541.58228	504.17401	
1760	17.590	-236.04112	13.09058	-268.42255	147.81987	128.08986	-274.71710	-211.24089	124.20417	352.61603	148.20573	15.49853	347.58087	-30.00041	1175.91174	-336.83057	-124.73541	530.92694	-437.97403	34.09004	531.75665	-439.01730	-111.64438	549.22491	506.07742	41.41171	541.26355	505.01868	
1761	17.600	-236.10277	12.95026	-268.23199	147.76920	135.33099	-272.62943	-214.21883	131.85815	355.17050	148.34354	15.44767	347.64758	-30.39520	1175.72705	-335.71048	-125.56022	530.82184	-436.63220	33.40934	531.80878	-438.17160	-111.08062	548.91467	507.58252	41.96001	541.06720	506.30142	
1762	17.610	-236.11737	12.97846	-267.99255	147.40965	141.40588	-270.91306	-215.65044	138.18178	357.06271	148.40672	15.40952	347.73804	-30.82323	1175.56995	-334.28986	-126.16679	530.95642	-435.32379	32.71569	531.86285	-436.66928	-110.51987	548.75043	509.11563	42.15726	540.89807	507.39117	
1763	17.620	-236.04900	12.96336	-267.89886	145.93974	144.55524	-268.52667	-217.39677	142.54054	359.02100	148.54370	15.28759	347.71988	-31.16676	1175.46252	-332.84576	-126.55339	530.76837	-433.66525	32.24884	532.03284	-435.64078	-110.10729	548.73700	510.32416	42.52435	540.90265	508.74838	
1764	17.630	-235.96094	12.94875	-267.79263	146.12807	145.08154	-265.56531	-218.84805	143.18048	362.44211	148.60010	15.30109	347.77625	-31.78637	1175.63232	-331.58652	-127.42399	531.05597	-432.52710	31.51619	532.07410	-434.28351	-109.68848	548.79944	511.59698	43.22008	541.01599	509.64862	
1765	17.640	-235.94746	12.91988	-267.65448	143.94983	142.39511	-262.00586	-220.35742	141.64525	365.57257	148.70828	15.34893	347.86301	-32.94535	1175.99756	-330.18713	-127.85429	531.08447	-431.14154	30.37270	532.30103	-432.84735	-109.30933	549.06354	513.16284	43.24107	541.19141	511.24536	
1766	17.650	-235.91629	12.87961	-267.48157	143.73624	138.20129	-258.18900	-221.82529	138.34317	369.12561	148.70660	15.28564	347.84238	-33.47022	1176.33850	-328.68765	-128.71281	531.26898	-429.54453	29.52884	532.44891	-431.62286	-109.15916	549.13800	514.69196	43.40662	541.28766	512.60278	
1767	17.660	-235.82298	12.96479	-267.28339	141.74832	133.05331	-255.07225	-222.97876	134.28136	373.33353	148.84424	15.26962	347.88162	-33.45618	1176.41235	-327.01691	-129.12509	531.42188	-427.80478	29.11769	532.47272	-430.05304	-108.85767	549.18317	516.13098	43.77426	541.30377	514.03040	
1768	17.670	-235.81285	12.99319	-267.19705	139.59929	127.05768	-251.86034	-224.01852	129.90173	377.02118	148.87216	15.26921	347.96796	-33.79252	1176.39819	-325.90591	-129.80057	531.60052	-426.49924	29.07047	532.71912	-429.06918	-108.41550	549.06378	517.75104	44.02001	541.18915	515.29980	
1769	17.680	-235.80659	12.96154	-266.87076	138.13756	121.08763	-248.74765	-225.02367	124.39438	381.13309	149.01094	15.22752	348.02005	-33.52723	1176.10022	-324.32797	-130.53810	531.81854	-425.00748	28.28675	532.76251	-427.80948	-107.91319	549.21497	519.17407	44.46808	541.17596	516.78827	
1770	17.690	-235.86058	12.88387	-266.81970	136.63968	114.28933	-245.49046	-226.59962	118.37828	385.02322	148.98029	15.24155	348.07614	-34.05875	1176.11377	-322.75790	-130.90756	531.50793	-423.32877	27.28705	532.46313	-426.00824	-107.67826	549.25812	520.69208	44.95520	541.32068	518.26917	
1771	17.700	-235.93227	12.69956	-266.71664	135.66893	107.05350	-242.47563	-227.90236	111.09043	389.01138	149.05814	15.22329	348.10489	-34.28275	1176.03870	-321.11505	-131.85646	531.18115	-421.71973	26.47456	532.19629	-424.64966	-107.30848	549.01202	522.27631	45.35430	540.90698	519.01862	
1772	17.710	-235.97934	12.59272	-266.69077	133.55492	98.52657	-239.54707	-229.52069	103.58131	392.63007	149.09416	15.22017	348.13870	-34.18113	1175.90698	-319.57721	-132.29993	530.96649	-420.02444	26.53647	531.84247	-423.46375	-106.98289	548.97491	523.84436	45.19365	541.00854	521.09912	
1773	17.720	-236.01268	12.54168	-266.59161	132.37883	89.96352	-235.54456	-230.28479	95.24212	396.28619	149.19370	15.22015	348.12155	-34.46013	1175.69116	-318.40329	-132.99255	530.89185	-418.36847	25.91523	531.72485	-421.90256	-106.87037	548.86151	525.43036	45.61134	540.87384	522.67175	
1774	17.730	-236.03680	12.54237	-266.57178	130.61029	80.47818	-232.18901	-231.66367	87.34629	400.34888	149.17226	15.24148	348.21536	-34.88228	1175.42126	-317.01468	-133.70377	531.09259	-416.94879	25.37545	531.52551	-420.33008	-106.60802	548.70996	526.96442	46.17321	540.56390	523.31842	
1775	17.740	-236.00917	12.50996	-266.41565	128.78731	71.11309	-228.70453	-232.04680	78.20962	403.96756	149.24747	15.23123	348.22156	-35.11482	1175.27319	-315.51236	-134.15598	531.03937	-415.33893	24.73309	531.38965	-418.97751	-106.10728	548.63837	528.50696	45.99673	540.44049	524.81018	
1776	17.750	-235.98897	12.28821	-266.27087	127.75509	61.88067	-225.57103	-233.44139	69.80499	407.71597	149.15991	15.23794	348.30435	-35.50929	1175.19727	-314.06631	-134.70772	530.92480	-413.57791	24.01850	531.11218	-417.49466	-105.93133	548.98206	530.34241	46.44390	540.37842	526.36804	
1777	17.760	-235.99924	12.09595	-266.03519	127.19174	53.75594	-222.75793	-233.42395	61.17520	409.74567	149.26366	15.26794	348.29468	-35.25226	1175.11316	-312.39355	-135.53011	530.74670	-411.97141	23.27652	530.92059	-415.92804	-105.72763	548.78113	531.96289	46.61304	540.30249	527.86414	
1778	17.770	-236.05907	12.02322	-265.91843	127.08926	45.31325	-221.38008	-234.35754	53.38788	411.82620	149.28290	15.31079	348.40112	-34.96503	1174.90320	-310.53857	-136.17775	530.46582	-410.18210	22.54818	530.63367	-414.42160	-105.49266	548.64136	533.65356	46.03472	540.25232	529.34717	
1779	17.780	-235.98845	11.88912	-265.85629	126.64294	37.22637	-219.97949	-234.12531	45.63504	413.66214	149.28163	15.33035	348.45325	-34.90971	1174.63025	-309.00363	-136.96579	530.44928	-408.51495	21.95457	530.54034	-412.82794	-105.63245	548.66943	534.90466	46.37319	539.92828	530.75897	
1780	17.790	-235.94516	11.89039	-265.77863	126.56172	30.61079	-218.58195	-233.59399	37.76593	414.80707	149.23399	15.32340	348.42090	-35.30162	1174.35815	-307.68460	-137.53284	530.49719	-406.83682	21.07061	530.76080	-411.50082	-105.33907	548.68445	536.87994	46.73558	539.45856	532.34863	
1781	17.800	-235.92723	11.82514	-265.71454	125.12561	23.82505	-217.56149	-233.63972	30.58803	416.18079	149.17009	15.29812	348.49173	-35.18564	1174.20630	-306.02866	-138.26868	530.57227	-405.46063	20.76679	530.39636	-409.75482	-105.38687	548.25391	538.53253	46.78331	539.22644	533.92078	
1782	17.810	-235.90796	11.67789	-265.63217	125.07510	17.50307	-216.78825	-234.08411	24.64412	416.90228	149.14378	15.27063	348.51361	-35.51642	1174.33252	-304.25540	-138.80003	530.48065	-403.73816	20.04514	530.38782	-408.16333	-105.04146	547.82025	540.26361	46.87937	539.01453	535.53528	
1783	17.820	-235.87981	11.51103	-265.45673	126.03111	16.77097	-218.75304	-234.33044	22.61247	415.07336	149.29294	15.30142	348.53226	-36.32383	1174.29614	-302.38522	-139.39529	530.40497	-402.05103	19.25593	530.32465	-406.73956	-105.03826	547.65033	541.90649	46.94347	538.67151	537.00061	
1784	17.830	-235.89220	11.39866	-265.43060	126.93547	14.63282	-218.32672	-234.88080	20.70085	415.46948	149.18520	15.35357	348.55161	-37.17044	1174.32861	-300.57324	-139.94775	530.33380	-400.05368	18.57639	530.39166	-405.19781	-105.12851	548.03467	543.52814	47.49802	539.24548	538.63965	
1785	17.840	-235.78497	11.58789	-265.01041	127.01929	14.07730	-217.85884	-234.57109	20.33433	416.26160	149.14989	15.60261	348.98999	-37.59264	1174.50903	-298.85431	-140.80853	530.73981	-398.09305	18.04584	530.82758	-403.29218	-104.92448	549.26886	545.09998	47.74427	540.15521	540.28699	
1786	17.850	-235.70966	13.92491	-265.08490	126.39185	13.90931	-217.46608	-234.59131	19.59575	417.45810	148.92181	17.86495	348.80298	-38.24884	1175.40662	-297.30466	-141.60742	531.68030	-396.64700	17.12976	531.75903	-401.86673	-104.94268	550.76276	547.28156	47.58230	540.79144	541.81537	
1787	17.860	-233.49319	19.71907	-263.95334	124.89738	14.10653	-217.75052	-234.85077	19.35157	417.14258	146.44107	20.83192	351.67557	-39.26699	1176.76025	-296.01532	-142.45015	532.97321	-395.22913	16.12711	533.07581	-400.56961	-104.59250	550.47119	548.95166	47.55425	540.82965	543.07257	
1788	17.870	-229.98769	22.34687	-258.87323	125.80254	14.23039	-217.76135	-234.89880	19.27391	417.13324	143.01550	23.44841	355.07599	-40.96994	1177.94482	-294.80634	-143.19464	533.60608	-393.80341	15.78826	533.82330	-399.16803	-104.22312	550.60754	550.57532	47.16637	540.75665	544.22272	
1789	17.880	-227.35825	27.45184	-255.56494	124.92440	13.73403	-218.03734	-234.90952	19.26075	417.11426	140.13092	30.45726	357.65121	-42.18329	1178.69629	-292.81854	-143.50244	533.86407	-392.31607	15.33064	534.23199	-397.95715	-104.78065	550.60162	551.48712	46.87817	540.88660	545.40051	
1790	17.890	-227.43187	39.02716	-255.42014	125.13479	13.43137	-218.30823	-234.97951	19.16254	417.54001	138.61369	39.32865	358.99155	-43.56006	1178.83264	-291.00198	-143.87971	533.98322	-391.40237	14.92252	534.37921	-396.87177	-104.35815	550.85699	553.01483	47.26670	541.06268	546.72662	
1791	17.900	-228.58846	48.61912	-253.45195	125.19227	13.30640	-218.08133	-234.87512	18.65586	417.28125	139.02151	50.41087	359.70868	-44.58271	1178.71167	-289.50751	-143.78000	533.81567	-389.98428	14.86437	534.26672	-395.61176	-104.93785	550.43988	554.17902	46.71316	541.08209	547.97040	
